<svg xmlns="http://www.w3.org/2000/svg" width="53.08" height="53.069" viewBox="0 0 53.08 53.069">
  <path id="Icon_awesome-instagram" data-name="Icon awesome-instagram" d="M26.541,15.166A13.606,13.606,0,1,0,40.147,28.772,13.585,13.585,0,0,0,26.541,15.166Zm0,22.452a8.846,8.846,0,1,1,8.846-8.846A8.862,8.862,0,0,1,26.541,37.618ZM43.877,14.609A3.174,3.174,0,1,1,40.7,11.436,3.166,3.166,0,0,1,43.877,14.609Zm9.012,3.221c-.2-4.251-1.172-8.017-4.287-11.119S41.734,2.637,37.483,2.424c-4.381-.249-17.514-.249-21.9,0-4.239.2-8,1.172-11.119,4.275S.394,13.567.181,17.818c-.249,4.381-.249,17.514,0,21.9.2,4.251,1.172,8.017,4.287,11.119s6.868,4.074,11.119,4.287c4.381.249,17.514.249,21.9,0,4.251-.2,8.017-1.172,11.119-4.287s4.074-6.868,4.287-11.119c.249-4.381.249-17.5,0-21.883Zm-5.66,26.585a8.956,8.956,0,0,1-5.045,5.045C38.69,50.845,30.4,50.525,26.541,50.525s-12.161.308-15.643-1.066a8.956,8.956,0,0,1-5.045-5.045C4.468,40.922,4.788,32.632,4.788,28.772S4.48,16.611,5.853,13.129A8.956,8.956,0,0,1,10.9,8.085C14.391,6.7,22.68,7.019,26.541,7.019S38.7,6.711,42.184,8.085a8.956,8.956,0,0,1,5.045,5.045c1.385,3.493,1.066,11.782,1.066,15.643S48.614,40.933,47.228,44.415Z" transform="translate(0.005 -2.238)" fill="#fff"/>
</svg>
