<svg xmlns="http://www.w3.org/2000/svg" width="41.706" height="48.005" viewBox="0 0 41.706 48.005">
  <path id="Icon_simple-tiktok" data-name="Icon simple-tiktok" d="M24.273.04C26.893,0,29.493.02,32.093,0a12.459,12.459,0,0,0,3.5,8.341,14.106,14.106,0,0,0,8.481,3.58v8.061a21.409,21.409,0,0,1-8.4-1.94,24.713,24.713,0,0,1-3.24-1.86c-.02,5.841.02,11.681-.04,17.5a15.278,15.278,0,0,1-2.7,7.881,14.9,14.9,0,0,1-11.821,6.421,14.585,14.585,0,0,1-8.161-2.06A15.083,15.083,0,0,1,2.41,34.5c-.04-1-.06-2-.02-2.98A15.058,15.058,0,0,1,19.852,18.162c.04,2.96-.08,5.921-.08,8.881a6.863,6.863,0,0,0-8.761,4.24,7.935,7.935,0,0,0-.28,3.22,6.807,6.807,0,0,0,7,5.741,6.72,6.72,0,0,0,5.541-3.22,4.615,4.615,0,0,0,.82-2.12c.2-3.58.12-7.141.14-10.721.02-8.061-.02-16.1.04-24.142Z" transform="translate(-2.369)" fill="#fff"/>
</svg>
